<svg width="34" height="30" viewBox="0 0 34 30" fill="none" xmlns="http://www.w3.org/2000/svg">
<path d="M9.95619 0.000101828C8.64767 -0.00579461 7.35081 0.244441 6.13974 0.736505C4.92867 1.22857 3.82713 1.95281 2.89809 2.86784C1.07535 4.67617 0.035785 7.11981 0.000906711 9.67811C-0.0339716 12.2364 0.93859 14.7071 2.71137 16.5638C4.81511 18.8876 7.2176 21.1002 9.47071 23.3252L15.9935 29.8023C16.1167 29.8908 16.2648 29.9383 16.4168 29.9383C16.4894 29.9628 16.5682 29.9628 16.6408 29.9383H16.728C16.7642 29.9085 16.7976 29.8754 16.8276 29.8394H16.9147L23.6491 23.3252C25.8525 21.0755 28.3919 18.8011 30.4085 16.4772C32.1495 14.6222 33.0989 12.1693 33.0571 9.63386C33.0153 7.09842 31.9856 4.67771 30.1844 2.8802C28.3803 1.11884 25.9686 0.105398 23.4393 0.0457061C20.9099 -0.0139854 18.4525 0.884548 16.5661 2.55882C14.7595 0.919966 12.4031 0.00780272 9.95619 0.000101828ZM9.95619 1.43397C12.2101 1.43906 14.3709 2.32753 15.9686 3.90616C16.1084 4.03211 16.2903 4.10188 16.479 4.10188C16.6677 4.10188 16.8497 4.03211 16.9894 3.90616C17.7789 3.12203 18.7162 2.50001 19.7479 2.07563C20.7795 1.65126 21.8852 1.43283 23.0018 1.43283C24.1185 1.43283 25.2242 1.65126 26.2558 2.07563C27.2874 2.50001 28.2248 3.12203 29.0143 3.90616C30.6018 5.45957 31.5039 7.57494 31.5226 9.78806C31.5413 12.0012 30.675 14.1313 29.1139 15.7109L22.5164 22.2498L16.5039 28.2201L10.4915 22.2498C8.32548 20.0619 6.02258 17.9358 3.91884 15.7232C3.13784 14.9483 2.51828 14.0282 2.09557 13.0155C1.67285 12.0027 1.45528 10.9172 1.45528 9.82087C1.45528 8.72457 1.67285 7.63902 2.09557 6.62626C2.51828 5.6135 3.13784 4.69339 3.91884 3.91852C5.52068 2.32932 7.69185 1.43582 9.95619 1.43397Z" fill="#809B10"/>
</svg>
