<svg width="28" height="36" viewBox="0 0 28 36" fill="none" xmlns="http://www.w3.org/2000/svg">
<path d="M14 0.000862818C12.1804 -0.0197442 10.3747 0.328957 8.68613 1.02703C6.99755 1.72511 5.45919 2.75887 4.159 4.06923C2.8588 5.37958 1.82226 6.94084 1.10864 8.66374C0.39501 10.3867 0.0182861 12.2374 0 14.1103C0 18.217 3.5 23.5366 6.81333 27.9555C8.93322 30.7086 11.2 33.3384 13.6033 35.8328C13.6554 35.8865 13.7172 35.9291 13.7852 35.9582C13.8533 35.9873 13.9263 36.0023 14 36.0023C14.0737 36.0023 14.1467 35.9873 14.2148 35.9582C14.2828 35.9291 14.3446 35.8865 14.3967 35.8328C16.8 33.3384 19.0668 30.7086 21.1867 27.9555C24.5583 23.5366 28 18.217 28 14.1103C27.9817 12.2374 27.605 10.3867 26.8914 8.66374C26.1777 6.94084 25.1412 5.37958 23.841 4.06923C22.5408 2.75887 21.0024 1.72511 19.3139 1.02703C17.6253 0.328957 15.8196 -0.0197442 14 0.000862818ZM14 1.20166C15.6668 1.17946 17.3215 1.49601 18.8692 2.13316C20.4169 2.77032 21.8273 3.71556 23.0195 4.91473C24.2116 6.11389 25.1622 7.54341 25.8166 9.12135C26.4711 10.6993 26.8166 12.3947 26.8333 14.1103C26.8333 17.4845 23.5667 22.8521 20.23 27.211C18.2923 29.759 16.2121 32.1887 14 34.4879C11.7879 32.1887 9.70771 29.759 7.77 27.211C4.43333 22.8161 1.16667 17.4845 1.16667 14.1103C1.18341 12.3947 1.52891 10.6993 2.18337 9.12135C2.83783 7.54341 3.78837 6.11389 4.98055 4.91473C6.17272 3.71556 7.58308 2.77032 9.1308 2.13316C10.6785 1.49601 12.3332 1.17946 14 1.20166ZM14 7.80607C12.7309 7.80607 11.4903 8.19341 10.4351 8.91911C9.37988 9.64481 8.55744 10.6763 8.07177 11.8831C7.58611 13.0899 7.45904 14.4178 7.70663 15.6989C7.95422 16.9801 8.56534 18.1568 9.46273 19.0805C10.3601 20.0041 11.5035 20.6331 12.7482 20.888C13.9929 21.1428 15.2831 21.012 16.4556 20.5121C17.628 20.0123 18.6302 19.1658 19.3353 18.0797C20.0403 16.9936 20.4167 15.7167 20.4167 14.4105C20.4136 12.6599 19.7366 10.9818 18.5339 9.74396C17.3312 8.50608 15.7009 7.80924 14 7.80607ZM14 9.00687C15.0384 9.00687 16.0534 9.32378 16.9167 9.91754C17.7801 10.5113 18.453 11.3552 18.8504 12.3426C19.2477 13.33 19.3517 14.4165 19.1491 15.4647C18.9466 16.5129 18.4465 17.4757 17.7123 18.2314C16.9781 18.9871 16.0426 19.5017 15.0242 19.7102C14.0058 19.9187 12.9502 19.8117 11.9909 19.4028C11.0316 18.9938 10.2117 18.3012 9.63478 17.4126C9.05791 16.5239 8.75 15.4792 8.75 14.4105C8.74846 13.7004 8.88321 12.997 9.1465 12.3407C9.40979 11.6844 9.79644 11.0881 10.2843 10.586C10.7721 10.0839 11.3514 9.68596 11.9891 9.41497C12.6267 9.14397 13.3101 9.00529 14 9.00687Z" fill="#809B10"/>
</svg>
