<svg width="33" height="33" viewBox="0 0 33 33" fill="none" xmlns="http://www.w3.org/2000/svg">
<g clip-path="url(#clip0_1_87)">
<path d="M17.325 0V1.27119H17.5154L18.4927 1.36017V0.966102L18.6323 0.101695H18.5688L17.5915 0H17.325ZM14.7104 0.0635593H14.3931L13.4031 0.254237L13.6188 1.52542L14.5327 1.37288H14.8119L14.7104 0.0635593ZM21.2215 0.661017L20.8662 1.9322L21.3865 2.08475L22.0212 2.32627L22.4654 1.08051L21.7927 0.826271L21.2215 0.661017ZM10.8519 0.966102L10.23 1.19492L10.1538 1.27119L9.59538 1.52542L10.1158 2.66949L10.6362 2.44068L11.2962 2.16102L10.8519 0.966102ZM24.8135 2.23729L24.1408 3.3178L24.9404 3.82627L25.1688 3.99153L25.9177 2.96186L25.6512 2.77119L24.8135 2.23729ZM7.33615 2.73305L6.48577 3.34322L6.33346 3.47034L7.13308 4.46186L7.29808 4.33475L8.00885 3.81356L7.74231 3.41949L7.32346 2.74576L7.33615 2.73305ZM16.5 3.13983C16.3339 3.14316 16.1757 3.21159 16.0594 3.33043C15.9432 3.44927 15.878 3.60903 15.8781 3.77542V6.35593C15.8764 6.4394 15.8911 6.52239 15.9215 6.60015C15.9518 6.67791 15.9972 6.74892 16.0549 6.80912C16.1127 6.86933 16.1817 6.91755 16.2581 6.95103C16.3345 6.9845 16.4167 7.00259 16.5 7.00424C16.5844 7.00426 16.668 6.9874 16.7458 6.95467C16.8237 6.92194 16.8942 6.87398 16.9533 6.81361C17.0124 6.75323 17.0589 6.68166 17.09 6.60307C17.1211 6.52448 17.1363 6.44046 17.1346 6.35593V3.81356C17.1346 3.64717 17.0695 3.4874 16.9532 3.36856C16.837 3.24972 16.6788 3.18129 16.5127 3.17797L16.5 3.13983ZM27.9992 4.62712L27.1235 5.55509L27.2885 5.70763L27.9358 6.41949L28.8623 5.54237L28.1769 4.8178L27.9992 4.62712ZM12.6923 5.23729C12.6089 5.24056 12.527 5.26026 12.4513 5.29527C12.3755 5.33027 12.3074 5.37989 12.2508 5.44128C12.1943 5.50268 12.1503 5.57465 12.1215 5.65307C12.0927 5.73149 12.0797 5.81482 12.0831 5.89831C12.07 5.97829 12.07 6.05985 12.0831 6.13983L12.6162 7.29661C12.647 7.38509 12.6949 7.46661 12.7572 7.53653C12.8195 7.60646 12.8949 7.66341 12.9792 7.70413C13.0635 7.74485 13.1549 7.76856 13.2484 7.77388C13.3418 7.77921 13.4353 7.76605 13.5237 7.73517C13.612 7.70429 13.6934 7.65628 13.7632 7.59389C13.833 7.5315 13.8899 7.45595 13.9305 7.37155C13.9712 7.28715 13.9949 7.19556 14.0002 7.102C14.0055 7.00844 13.9924 6.91475 13.9615 6.82627L13.4285 5.66949C13.4093 5.59222 13.3749 5.51957 13.3273 5.45581C13.2797 5.39205 13.2198 5.33846 13.1512 5.29819C13.0826 5.25793 13.0067 5.2318 12.9279 5.22134C12.8491 5.21088 12.769 5.2163 12.6923 5.23729ZM20.1427 5.23729C20.03 5.24316 19.9213 5.28091 19.8292 5.34617C19.7371 5.41142 19.6654 5.50149 19.6223 5.60593L19.0892 6.76271C19.0528 6.83857 19.0318 6.92092 19.0275 7.00496C19.0231 7.08901 19.0355 7.17309 19.0638 7.25233C19.0921 7.33156 19.1359 7.40437 19.1926 7.46652C19.2492 7.52868 19.3176 7.57895 19.3938 7.61441C19.4723 7.66152 19.56 7.69107 19.651 7.70105C19.7419 7.71103 19.834 7.70119 19.9208 7.67221C20.0076 7.64323 20.0871 7.5958 20.1539 7.53316C20.2207 7.47053 20.2731 7.39417 20.3077 7.30932L20.8408 6.15254C20.8772 6.07668 20.8982 5.99434 20.9025 5.91029C20.9069 5.82624 20.8945 5.74216 20.8662 5.66293C20.8379 5.5837 20.7941 5.51089 20.7374 5.44873C20.6808 5.38658 20.6124 5.33631 20.5362 5.30085C20.4526 5.28178 20.3659 5.28178 20.2823 5.30085L20.1427 5.23729ZM4.34077 5.32627L4.08692 5.59322L3.49038 6.35593L4.46769 7.15678L5.07692 6.4322L5.30538 6.19068L4.34077 5.32627ZM8.97346 6.49576H8.88461C8.71851 6.50562 8.56291 6.58042 8.45133 6.70405C8.33976 6.82769 8.28113 6.99027 8.28808 7.15678C8.29302 7.24775 8.31705 7.33665 8.3586 7.41769C8.40016 7.49873 8.45829 7.57009 8.52923 7.62712L10.4204 9.3178C10.4783 9.37699 10.5474 9.42401 10.6237 9.45612C10.7 9.48822 10.7819 9.50475 10.8646 9.50475C10.9474 9.50475 11.0293 9.48822 11.1055 9.45612C11.1818 9.42401 11.2509 9.37699 11.3088 9.3178C11.3683 9.25871 11.4155 9.18841 11.4478 9.11096C11.48 9.03351 11.4966 8.95043 11.4966 8.86653C11.4966 8.78262 11.48 8.69954 11.4478 8.62209C11.4155 8.54464 11.3683 8.47434 11.3088 8.41526L9.37961 6.67373C9.26713 6.57178 9.12456 6.50931 8.97346 6.49576ZM24.0012 6.49576C23.8575 6.49849 23.7206 6.55787 23.6204 6.66102L21.7419 8.37712C21.6263 8.48642 21.5559 8.63521 21.5445 8.79403C21.5332 8.95286 21.5818 9.11017 21.6807 9.23482C21.7797 9.35947 21.9217 9.44239 22.0788 9.46717C22.2358 9.49195 22.3964 9.45679 22.5288 9.36864L24.4708 7.62712C24.5299 7.56912 24.5768 7.4999 24.6089 7.4235C24.6409 7.34711 24.6574 7.26507 24.6574 7.1822C24.6574 7.09934 24.6409 7.0173 24.6089 6.94091C24.5768 6.86451 24.5299 6.79528 24.4708 6.73729C24.3834 6.621 24.2573 6.53985 24.1154 6.50848L24.0012 6.49576ZM16.5 7.62712C15.5079 7.635 14.5314 7.87576 13.649 8.33007C12.7665 8.78438 12.0028 9.43958 11.419 10.2431C10.8352 11.0465 10.4476 11.9759 10.2874 12.9566C10.1272 13.9373 10.1989 14.9419 10.4965 15.8898H10.1538C10.0705 15.8881 9.98764 15.9029 9.91 15.9333C9.83236 15.9637 9.76146 16.0091 9.70135 16.067C9.64124 16.1248 9.5931 16.1939 9.55967 16.2704C9.52624 16.3469 9.50819 16.4292 9.50654 16.5127C9.50651 16.6825 9.57296 16.8455 9.69162 16.9667C9.81028 17.0879 9.97169 17.1577 10.1412 17.161H22.8462C23.0157 17.1611 23.1784 17.0945 23.2994 16.9757C23.4205 16.8568 23.4901 16.6952 23.4935 16.5254C23.4935 16.3569 23.4266 16.1952 23.3076 16.076C23.1886 15.9568 23.0272 15.8898 22.8588 15.8898H22.5415C22.9363 14.6575 22.9462 13.3339 22.5697 12.0959C22.1932 10.8579 21.4483 9.76448 20.4346 8.96187C19.3069 8.09268 17.923 7.62319 16.5 7.62712ZM30.4615 7.74153L29.3827 8.41526L29.7 8.89831L30.0046 9.47034L31.1215 8.89831L30.8042 8.28814L30.4615 7.7161V7.74153ZM2.03077 8.55509L1.71346 9.13983L1.45962 9.68644L2.61462 10.2076L2.84308 9.69915L3.14769 9.11441L2.03077 8.55509ZM16.5 8.89831C17.3326 8.89582 18.1531 9.09847 18.8891 9.4884C19.625 9.87833 20.254 10.4436 20.7205 11.1343C21.1869 11.8251 21.4766 12.6201 21.564 13.4494C21.6514 14.2787 21.5338 15.1168 21.2215 15.8898H11.8038C11.3954 14.8799 11.3218 13.7652 11.5937 12.7102C11.8656 11.6551 12.4688 10.7154 13.3142 10.0297C14.2199 9.30628 15.3416 8.90793 16.5 8.89831ZM24.8262 10.1695H24.5977L23.4173 10.6271C23.3307 10.649 23.2497 10.689 23.1795 10.7445C23.1094 10.7999 23.0517 10.8696 23.0103 10.9489C22.969 11.0282 22.9447 11.1154 22.9393 11.2047C22.9339 11.294 22.9473 11.3835 22.9788 11.4672C23.0103 11.551 23.0591 11.6271 23.1219 11.6907C23.1848 11.7543 23.2604 11.8038 23.3437 11.8361C23.4271 11.8684 23.5163 11.8827 23.6055 11.8781C23.6947 11.8735 23.782 11.85 23.8615 11.8093L25.0419 11.3517C25.1215 11.3198 25.1937 11.2722 25.2544 11.2116C25.315 11.151 25.3628 11.0787 25.3948 10.9991C25.4269 10.9196 25.4425 10.8343 25.4407 10.7485C25.4389 10.6627 25.4199 10.5782 25.3846 10.5C25.3376 10.3825 25.2572 10.2814 25.1535 10.2091C25.0497 10.1368 24.9271 10.0965 24.8008 10.0932L24.8262 10.1695ZM8.18654 10.1695C8.01823 10.1408 7.84544 10.1803 7.7062 10.2793C7.56695 10.3782 7.47265 10.5285 7.44404 10.697C7.41543 10.8656 7.45485 11.0387 7.55363 11.1781C7.65241 11.3176 7.80246 11.412 7.97077 11.4407L9.15115 11.911C9.23614 11.9379 9.32575 11.9469 9.41436 11.9374C9.50298 11.928 9.5887 11.9003 9.66614 11.8562C9.74359 11.812 9.8111 11.7523 9.86445 11.6808C9.91779 11.6093 9.95582 11.5276 9.97615 11.4407C10.0067 11.3623 10.0215 11.2786 10.0195 11.1944C10.0175 11.1103 9.99882 11.0274 9.96457 10.9505C9.93033 10.8736 9.88118 10.8043 9.81999 10.7466C9.75879 10.6889 9.68676 10.644 9.60808 10.6144L8.42769 10.1695C8.34836 10.151 8.26587 10.151 8.18654 10.1695ZM32.1623 11.3644L30.8931 11.7331L31.1469 12.5466L31.2358 12.9153L32.505 12.6229L32.4162 12.2542L32.1623 11.3644ZM0.558461 12.2288L0.33 13.1949V13.4746L1.59923 13.6907V13.4619L1.82769 12.4958L0.558461 12.2288ZM6.34615 13.3093C6.17784 13.3093 6.01643 13.3763 5.89741 13.4955C5.7784 13.6147 5.71154 13.7763 5.71154 13.9449C5.71154 14.1135 5.7784 14.2752 5.89741 14.3943C6.01643 14.5135 6.17784 14.5805 6.34615 14.5805H8.88461C9.05293 14.5805 9.21434 14.5135 9.33336 14.3943C9.45237 14.2752 9.51923 14.1135 9.51923 13.9449C9.51923 13.7763 9.45237 13.6147 9.33336 13.4955C9.21434 13.3763 9.05293 13.3093 8.88461 13.3093H6.34615ZM24.1154 13.3093C24.032 13.3135 23.9503 13.3341 23.8749 13.3699C23.7995 13.4057 23.7319 13.456 23.6759 13.518C23.62 13.5799 23.5767 13.6523 23.5487 13.731C23.5206 13.8098 23.5083 13.8932 23.5125 13.9767C23.5167 14.0602 23.5372 14.142 23.573 14.2175C23.6087 14.293 23.6589 14.3608 23.7208 14.4168C23.7827 14.4729 23.855 14.5162 23.9336 14.5443C24.0122 14.5724 24.0955 14.5847 24.1788 14.5805H26.7173C26.8006 14.5822 26.8835 14.5674 26.9611 14.537C27.0388 14.5066 27.1097 14.4612 27.1698 14.4034C27.2299 14.3455 27.2781 14.2764 27.3115 14.1999C27.3449 14.1234 27.363 14.0411 27.3646 13.9576C27.3615 13.7888 27.294 13.6276 27.176 13.5071C27.058 13.3865 26.8984 13.3158 26.73 13.3093H24.1154ZM33 15.1017L31.7308 15.2542V15.4449V16.5254C31.7308 20.5711 30.1261 24.4511 27.2698 27.3118C24.4135 30.1725 20.5394 31.7797 16.5 31.7797C12.4605 31.7797 8.58654 30.1725 5.73022 27.3118C2.8739 24.4511 1.26923 20.5711 1.26923 16.5254V16.2076H1.19308C1.11042 16.0612 0.973161 15.9535 0.811377 15.9082C0.649593 15.8629 0.476486 15.8838 0.33 15.9661C0.236631 16.0174 0.157966 16.0918 0.101538 16.1822H0V16.5254C0 20.9082 1.73839 25.1115 4.83274 28.2107C7.92709 31.3098 12.1239 33.0508 16.5 33.0508C20.8761 33.0508 25.0729 31.3098 28.1673 28.2107C31.2616 25.1115 33 20.9082 33 16.5254V15.4958V15.1017ZM7.61538 15.839C7.44591 15.8488 7.28709 15.925 7.17313 16.051C7.05918 16.177 6.99921 16.3428 7.00615 16.5127C7.01101 16.5962 7.03227 16.678 7.06874 16.7532C7.1052 16.8285 7.15614 16.8958 7.21864 16.9513C7.28113 17.0068 7.35396 17.0494 7.43293 17.0767C7.5119 17.104 7.59547 17.1153 7.67885 17.1102H8.00885C8.15981 17.0985 8.30163 17.0331 8.4087 16.9259C8.51577 16.8187 8.58103 16.6766 8.59269 16.5254C8.58977 16.3587 8.52405 16.1993 8.40872 16.0791C8.29339 15.9588 8.13696 15.8867 7.97077 15.8771H7.61538V15.839ZM25.08 15.839C24.9966 15.8438 24.915 15.8651 24.8398 15.9017C24.7647 15.9382 24.6975 15.9892 24.6421 16.0518C24.5866 16.1144 24.5441 16.1873 24.5169 16.2664C24.4897 16.3455 24.4783 16.4292 24.4835 16.5127C24.4867 16.5957 24.5064 16.6771 24.5415 16.7523C24.5766 16.8275 24.6264 16.8949 24.6879 16.9506C24.7494 17.0062 24.8214 17.049 24.8996 17.0764C24.9778 17.1038 25.0607 17.1153 25.1435 17.1102H25.7781C25.8614 17.1119 25.9443 17.0971 26.0219 17.0667C26.0996 17.0363 26.1705 16.9909 26.2306 16.933C26.2907 16.8752 26.3388 16.8061 26.3723 16.7296C26.4057 16.6531 26.4237 16.5708 26.4254 16.4873C26.4225 16.3206 26.3567 16.1612 26.2414 16.0409C26.1261 15.9207 25.9697 15.8486 25.8035 15.839H25.08ZM4.83577 18.3814C4.6663 18.3912 4.50747 18.4674 4.39352 18.5934C4.27956 18.7194 4.2196 18.8852 4.22654 19.0551C4.23139 19.1386 4.25266 19.2203 4.28912 19.2956C4.32558 19.3709 4.37653 19.4382 4.43902 19.4937C4.50152 19.5492 4.57434 19.5918 4.65332 19.6191C4.73229 19.6463 4.81586 19.6577 4.89923 19.6525H15.9415C16.0889 19.6376 16.2261 19.5706 16.3285 19.4634C16.4309 19.3562 16.4917 19.2159 16.5 19.0678C16.5017 18.9843 16.4869 18.9013 16.4566 18.8236C16.4262 18.7458 16.3809 18.6748 16.3231 18.6146C16.2654 18.5544 16.1964 18.5062 16.12 18.4727C16.0436 18.4392 15.9614 18.4211 15.8781 18.4195H4.77231L4.83577 18.3814ZM18.0992 18.3814C18.0158 18.3862 17.9342 18.4075 17.8591 18.444C17.7839 18.4806 17.7167 18.5316 17.6613 18.5942C17.6059 18.6568 17.5633 18.7297 17.5361 18.8088C17.5089 18.8879 17.4975 18.9716 17.5027 19.0551C17.5059 19.138 17.5257 19.2195 17.5608 19.2947C17.5959 19.3699 17.6456 19.4373 17.7071 19.493C17.7686 19.5486 17.8406 19.5914 17.9188 19.6188C17.9971 19.6462 18.08 19.6577 18.1627 19.6525H20.7012C20.7845 19.6542 20.8674 19.6395 20.945 19.6091C21.0226 19.5787 21.0935 19.5333 21.1536 19.4754C21.2138 19.4176 21.2619 19.3484 21.2953 19.2719C21.3288 19.1955 21.3468 19.1131 21.3485 19.0297C21.3455 18.863 21.2798 18.7035 21.1645 18.5833C21.0492 18.4631 20.8927 18.391 20.7265 18.3814H18.0358H18.0992ZM22.8715 18.3814C22.7021 18.3912 22.5432 18.4674 22.4293 18.5934C22.3153 18.7194 22.2554 18.8852 22.2623 19.0551C22.2672 19.1386 22.2884 19.2203 22.3249 19.2956C22.3614 19.3709 22.4123 19.4382 22.4748 19.4937C22.5373 19.5492 22.6101 19.5918 22.6891 19.6191C22.7681 19.6463 22.8516 19.6577 22.935 19.6525H28.6085C28.7594 19.6409 28.9013 19.5755 29.0083 19.4683C29.1154 19.361 29.1806 19.219 29.1923 19.0678C29.1892 18.899 29.1217 18.7378 29.0037 18.6173C28.8857 18.4967 28.7261 18.426 28.5577 18.4195H22.8462L22.8715 18.3814ZM6.84115 20.9237C6.67168 20.9336 6.51286 21.0097 6.3989 21.1358C6.28495 21.2618 6.22498 21.4276 6.23192 21.5975C6.23678 21.681 6.25804 21.7627 6.29451 21.838C6.33097 21.9133 6.38191 21.9806 6.44441 22.0361C6.5069 22.0916 6.57973 22.1342 6.6587 22.1614C6.73767 22.1887 6.82124 22.2001 6.90462 22.1949H9.44308C9.59853 22.1892 9.74647 22.1264 9.85879 22.0186C9.9711 21.9108 10.04 21.7655 10.0523 21.6102C10.0492 21.4414 9.98171 21.2802 9.86371 21.1596C9.74571 21.0391 9.58613 20.9683 9.41769 20.9619H6.77769L6.84115 20.9237ZM11.9181 20.9237C11.7509 20.9368 11.5952 21.0143 11.484 21.1399C11.3727 21.2656 11.3145 21.4296 11.3215 21.5975C11.3248 21.6804 11.3445 21.7619 11.3796 21.8371C11.4147 21.9123 11.4645 21.9797 11.526 22.0353C11.5875 22.091 11.6594 22.1338 11.7377 22.1612C11.8159 22.1886 11.8988 22.2001 11.9815 22.1949C12.1334 22.1859 12.2767 22.1213 12.3843 22.0136C12.4919 21.9058 12.5563 21.7623 12.5654 21.6102C12.5655 21.4425 12.5008 21.2814 12.3849 21.1605C12.2689 21.0396 12.1107 20.9684 11.9435 20.9619H11.8419L11.9181 20.9237ZM14.4565 20.9237C14.2871 20.9336 14.1282 21.0097 14.0143 21.1358C13.9003 21.2618 13.8404 21.4276 13.8473 21.5975C13.8505 21.6816 13.8706 21.7641 13.9065 21.8402C13.9424 21.9163 13.9933 21.9843 14.0562 22.0402C14.119 22.096 14.1925 22.1385 14.2723 22.1651C14.352 22.1917 14.4363 22.2018 14.52 22.1949H22.605C22.6877 22.1966 22.77 22.1817 22.8469 22.1512C22.9238 22.1207 22.9939 22.075 23.053 22.017C23.1121 21.959 23.159 21.8898 23.1911 21.8134C23.2231 21.737 23.2396 21.6549 23.2396 21.572C23.2413 21.4886 23.2265 21.4056 23.1962 21.3278C23.1659 21.2501 23.1205 21.179 23.0628 21.1188C23.005 21.0586 22.936 21.0104 22.8596 20.9769C22.7832 20.9435 22.701 20.9254 22.6177 20.9237H14.4312H14.4565ZM25.0419 20.9237C24.9585 20.9286 24.8769 20.9499 24.8018 20.9864C24.7266 21.0229 24.6594 21.074 24.604 21.1365C24.5486 21.1991 24.506 21.2721 24.4788 21.3512C24.4516 21.4303 24.4402 21.514 24.4454 21.5975C24.4486 21.6804 24.4684 21.7619 24.5035 21.8371C24.5386 21.9123 24.5883 21.9797 24.6498 22.0353C24.7113 22.091 24.7833 22.1338 24.8615 22.1612C24.9397 22.1886 25.0227 22.2001 25.1054 22.1949H26.565C26.6483 22.1966 26.7312 22.1818 26.8088 22.1514C26.8865 22.121 26.9574 22.0756 27.0175 22.0178C27.0776 21.9599 27.1257 21.8908 27.1592 21.8143C27.1926 21.7378 27.2107 21.6555 27.2123 21.572C27.2092 21.4032 27.1417 21.2421 27.0237 21.1215C26.9057 21.001 26.7461 20.9302 26.5777 20.9237H25.0165H25.0419Z" fill="#809B10"/>
</g>
<defs>
<clipPath id="clip0_1_87">
<rect width="33" height="33" fill="white"/>
</clipPath>
</defs>
</svg>
